<svg width="18" height="18" viewBox="0 0 18 18" fill="none" xmlns="http://www.w3.org/2000/svg">
<g clip-path="url(#clip0_1_44)">
<path d="M6.62989 14.8875C7.12852 15.3293 7.78411 15.5981 8.50267 15.5994C9.22124 15.6008 9.87783 15.3345 10.3781 14.8946M12.7715 5.69082C12.7736 4.56366 12.3279 3.48181 11.5324 2.68327C10.7368 1.88473 9.65669 1.43491 8.52952 1.43278C7.40235 1.43064 6.3205 1.87636 5.52196 2.67187C4.72343 3.46739 4.27361 4.54755 4.27147 5.67471C4.26732 7.86359 3.71232 9.36121 3.09362 10.3513C2.57174 11.1865 2.3108 11.6041 2.32012 11.7207C2.33043 11.8499 2.3577 11.8992 2.46162 11.9766C2.55547 12.0465 2.97914 12.0473 3.8265 12.0489L13.1923 12.0666C14.0396 12.0682 14.4633 12.069 14.5574 11.9995C14.6616 11.9225 14.6891 11.8733 14.6999 11.7442C14.7096 11.6276 14.4503 11.209 13.9316 10.3719C13.3166 9.37942 12.7673 7.8797 12.7715 5.69082Z" stroke="black" stroke-width="2" stroke-linecap="round" stroke-linejoin="round"/>
</g>
<defs>
<clipPath id="clip0_1_44">
<rect width="17" height="17" fill="white" transform="translate(0.032222) rotate(0.108599)"/>
</clipPath>
</defs>
</svg>
